<svg xmlns="http://www.w3.org/2000/svg" data-name="Layer 1" viewBox="0 0 24 24" id="microwave"><path d="M20.5,13A1.5,1.5,0,1,0,22,14.5,1.5,1.5,0,0,0,20.5,13Zm0,2a.5.5,0,1,1,.5-.5A.5.5,0,0,1,20.5,15Zm1-11H2.5A2.5,2.5,0,0,0,0,6.5v9a2.5,2.5,0,0,0,2,2.45v.55a1.5,1.5,0,0,0,3,0V18H19v.5a1.5,1.5,0,0,0,3,0v-.55a2.5,2.5,0,0,0,2-2.45v-9A2.5,2.5,0,0,0,21.5,4ZM4,18.5a.5.5,0,0,1-1,0V18H4ZM17,17H2.5a1.5,1.5,0,0,1-1.41-1H17Zm0-2H1V7H17Zm0-9H1.09A1.5,1.5,0,0,1,2.5,5H17Zm4,12.5a.5.5,0,0,1-1,0V18h1Zm2-3A1.5,1.5,0,0,1,21.5,17H18V5h3.5A1.5,1.5,0,0,1,23,6.5Zm-7.83-2a.5.5,0,0,0,.5-.5V9a.5.5,0,0,0-1,0v4A.5.5,0,0,0,15.17,13.5ZM21.5,10h-2a.5.5,0,0,0,0,1h2a.5.5,0,0,0,0-1Zm0-4h-2a.5.5,0,0,0,0,1h2a.5.5,0,0,0,0-1Zm0,2h-2a.5.5,0,0,0,0,1h2a.5.5,0,0,0,0-1Z"></path></svg>